<?xml version="1.0" standalone="no"?>
<!DOCTYPE svg PUBLIC "-//W3C//DTD SVG 20010904//EN"
 "http://www.w3.org/TR/2001/REC-SVG-20010904/DTD/svg10.dtd">
<svg version="1.0" xmlns="http://www.w3.org/2000/svg"
 width="512.000000pt" height="512.000000pt" viewBox="0 0 512.000000 512.000000"
 preserveAspectRatio="xMidYMid meet">
<metadata>
Created by potrace 1.14, written by Peter Selinger 2001-2017
</metadata>
<g transform="translate(0.000000,512.000000) scale(0.100000,-0.100000)"
fill="#000000" stroke="none">
<path d="M2448 4775 c-2 -1 -41 -5 -88 -9 -100 -7 -122 -11 -255 -38 -353 -72
-688 -235 -980 -478 -16 -13 -80 -75 -142 -137 -172 -172 -314 -372 -421 -594
-29 -58 -52 -109 -52 -113 0 -5 -7 -22 -14 -39 -37 -79 -106 -327 -121 -432
-4 -22 -8 -51 -11 -65 -9 -58 -18 -181 -18 -272 -1 -53 -4 -94 -8 -91 -15 8
-8 -142 11 -272 72 -480 293 -918 634 -1257 346 -345 782 -562 1272 -633 162
-24 448 -24 610 0 1001 146 1765 910 1910 1910 13 88 15 148 11 225 -4 58 -9
148 -12 200 -2 52 -7 111 -10 130 -3 19 -7 53 -9 75 -2 22 -12 74 -20 115 -9
41 -18 84 -21 96 -14 72 -101 311 -151 416 -112 232 -243 417 -428 604 -209
210 -422 359 -682 473 -89 39 -226 89 -268 97 -11 2 -31 8 -45 13 -47 18 -254
57 -360 67 -50 5 -328 12 -332 9z"/>
</g>
</svg>
